{"title":"Cutting Moments (1997) - DVDRip XviD (AC-3)  [akhiugo]","uid":4727020,"size":737611776,"categoryP":"video","categoryS":"movies","magnet":"?xt=urn:btih:dfa701ab6e2c2e41bedee5b980455b2ce50d2015&amp;dn=Cutting+Moments+%281997%29+-+DVDRip+XviD+%28AC-3%29++%5Bakhiugo%5D&amp;tr=udp%3A%2F%2Ftracker.openbittorrent.com%3A80&amp;tr=udp%3A%2F%2Fopen.demonii.com%3A1337&amp;tr=udp%3A%2F%2Ftracker.coppersurfer.tk%3A6969&amp;tr=udp%3A%2F%2Fexodus.desync.com%3A6969","seeders":5,"leechers":1,"uploader":"akhiugo","files":-1,"time":1234808680,"description":"Synopsis : A collection of five shorts, each with a twist. \n\n'Crack Dog' features a gun-toting pizza delivery man and his cocaine-addicted canine. \n\nIn 'Bowl of Oatmeal' a lonely man begins taking advice from his well-intentioned bowl of hot breakfast cereal. \n\nIn 'Don't Nag Me' a disturbed war veteran shuts up his pestering wife - for good. But being dead and buried does not make her any less of a nuisance. \n\nIn 'Principles of Karma' a bored punk becomes involved with the Youth Liberation Front and tags along for an ultra violent joy ride. \n\nAnd finally, in 'Cutting Moments' a dysfunctional family and marriage is in a free fall towards oblivion. \n\n\n\nBe warned, this is not for the fainthearted but for fans of gore, horror and those kind of shocking but sometimes tongue-in-cheek films. The Cutting Moments episode has been listed in the top 10 sickest horror flicks of all time so that gives you an idea of what lies ahead. Send grandma out to the bingo if you plan on watching this in the living room cos she ain't likely to enjoy watching it with you. xD\n\n\nNOTE: The IMDB link above relates only to the one episode Cutting Moments. This is the whole pack.\n\n\n\nComplete name                    : Cutting Moments.avi\nFormat                           : AVI\nFormat/Info                      : Audio Video Interleave\nFile size                        : 703 MiB\nDuration                         : 1h 15mn\nOverall bit rate                 : 1 299 Kbps\nWriting application              : VirtualDubMod 1.5.4.1 (build 2178/release)\nWriting library                  : VirtualDubMod build 2178/release\n\nVideo\nFormat                           : MPEG-4 Visual\nFormat profile                   : Streaming Video@L1\nFormat settings, BVOP            : Yes\nFormat settings, QPel            : No\nFormat settings, GMC             : No warppoints\nFormat settings, Matrix          : Custom\nCodec ID                         : XVID\nCodec ID/Hint                    : XviD\nDuration                         : 1h 15mn\nBit rate                         : 1 068 Kbps\nWidth                            : 720 pixels\nHeight                           : 544 pixels\nDisplay aspect ratio             : 4/3\nFrame rate                       : 25.000 fps\nResolution                       : 24 bits\nColorimetry                      : 4:2:0\nScan type                        : Progressive\nBits/(Pixel*Frame)               : 0.109\nStream size                      : 578 MiB (82%)\nWriting library                  : XviD 1.2.1 (UTC 2008-12-04)\n\nAudio\nFormat                           : AC-3\nFormat/Info                      : Audio Coding 3\nCodec ID                         : 2000\nDuration                         : 1h 15mn\nBit rate mode                    : Constant\nBit rate                         : 224 Kbps\nChannel(s)                       : 2 channels\nChannel positions                : L R\nSampling rate                    : 48.0 KHz\nVideo delay                      : 10ms\nStream size                      : 121 MiB (17%)\nAlignment                        : Split accross interleaves\nInterleave, duration             : 96 ms (2.40 video frames)\nInterleave, preload duration     : 96 ms\n\n\n\nPlease help your fellow pirates by seeding after download!","torrent":{"xt":"urn:btih:dfa701ab6e2c2e41bedee5b980455b2ce50d2015","amp;dn":"Cutting+Moments+%281997%29+-+DVDRip+XviD+%28AC-3%29++%5Bakhiugo%5D","amp;tr":["udp%3A%2F%2Ftracker.openbittorrent.com%3A80","udp%3A%2F%2Fopen.demonii.com%3A1337","udp%3A%2F%2Ftracker.coppersurfer.tk%3A6969","udp%3A%2F%2Fexodus.desync.com%3A6969"],"infoHash":"dfa701ab6e2c2e41bedee5b980455b2ce50d2015","infoHashBuffer":{"type":"Buffer","data":[223,167,1,171,110,44,46,65,190,222,229,185,128,69,91,44,229,13,32,21]},"announce":[],"urlList":[]}}